# xmcd
#
# Track frame offsets:
#	150
#	27482
#	55756
#	80983
#	104307
#	138036
#	159766
#	187957
#	216661
#	241198
#
# Disc length: 3536 seconds
#
# Revision: 3
# Processed by: cddbd v1.5.2PL0 Copyright (c) Steve Scherf et al.
# Submitted via: EZCDAudioConverter 8.0.2.1
#
DISCID=820dce0a
DTITLE=Nhật Trường - 10 Khúc Khúc Tình Ly Bất Hủ
DYEAR=1999
DGENRE=blues
TTITLE0=Nhật Trường - Mùa đông của anh
TTITLE1=Nhật Trường - Tình muộn
TTITLE2=Nhật Trường, Nhật Bằng - Xin em đừng hỏi
TTITLE3=Nhật Trường - Kiếp nghèo
TTITLE4=Nhật Trường - Hoài cảm
TTITLE5=Nhật Trường - Ai nói yêu em đêm nay
TTITLE6=Nhật Trường - Hoa trắng thôi cài trên áo tím
TTITLE7=Nhật Trường - Dang dở
TTITLE8=Nhật Trường - Một đởi yêu em
TTITLE9=Nhật Trường - Trà Hoa Nữ
EXTD=
EXTT0=
EXTT1=
EXTT2=
EXTT3=
EXTT4=
EXTT5=
EXTT6=
EXTT7=
EXTT8=
EXTT9=
PLAYORDER=
